<svg width="59" height="52" viewBox="0 0 59 52" fill="none" xmlns="http://www.w3.org/2000/svg">
<path d="M12.6331 18.326C12.68 18.326 12.7279 18.3255 12.7752 18.3251C21.4896 18.2201 25.2923 10.1424 25.45 9.7982C25.5745 9.52623 25.5711 9.21226 25.4393 8.94322C25.2738 8.60338 21.2659 0.646345 12.5618 0.725935C4.66975 0.821638 0.29963 8.85484 0.117501 9.19664C-0.0431431 9.49791 -0.0387486 9.8607 0.128732 10.1581C0.318185 10.4935 4.82746 18.326 12.6331 18.326ZM12.5863 2.72593C19.0106 2.64635 22.5155 7.83824 23.4119 9.39537C22.5535 10.9745 19.2054 16.2474 12.7508 16.3251C12.7127 16.3255 12.6751 16.326 12.6375 16.326C7.0257 16.326 3.22932 11.2547 2.17072 9.65269C3.19709 8.01451 6.91193 2.79429 12.5863 2.72593Z" fill="black"/>
<path d="M12.7699 14.5706C12.7904 14.5706 12.8109 14.5701 12.8314 14.5701C15.6136 14.5359 17.8495 12.2449 17.8163 9.46266C17.7821 6.68092 15.4535 4.43044 12.7093 4.47829C9.92712 4.51247 7.69128 6.80348 7.72449 9.58522C7.75818 12.3469 10.0155 14.5706 12.7699 14.5706ZM12.7338 6.47829C12.746 6.47829 12.7582 6.4778 12.7709 6.4778C14.433 6.4778 15.7958 7.82009 15.8163 9.48708C15.8363 11.1668 14.4862 12.5496 12.807 12.5701C12.7948 12.5701 12.7826 12.5706 12.7699 12.5706C11.1078 12.5706 9.74499 11.2278 9.72449 9.56081C9.70447 7.88161 11.0541 6.4988 12.7338 6.47829Z" fill="black"/>
<path d="M56.0179 44.2683C56.012 44.22 56.014 44.1721 56.0013 44.1252C55.9939 44.0969 55.9827 44.0715 55.9725 44.0437C55.9529 43.99 55.9246 43.9436 55.8963 43.8948C55.8743 43.8557 55.8572 43.8157 55.8299 43.78C55.8206 43.7678 55.8186 43.7527 55.8089 43.741C55.6121 43.5051 50.9358 37.9592 46.4935 37.9592C43.5223 37.9592 41.785 39.3484 40.8323 40.9485C39.8797 39.3484 38.1429 37.9592 35.1717 37.9592C30.7293 37.9592 26.053 43.5051 25.8562 43.741C25.845 43.7542 25.8401 43.7703 25.8294 43.7839C25.8099 43.8108 25.7962 43.8386 25.7791 43.8665C25.7332 43.9417 25.698 44.0203 25.6741 44.1033C25.6648 44.1345 25.6546 44.1638 25.6482 44.196C25.6268 44.3083 25.6189 44.4226 25.637 44.5369C25.638 44.5447 25.6429 44.5525 25.6443 44.5608C25.6595 44.6438 25.6814 44.7268 25.7186 44.8054C25.7293 44.8289 25.7478 44.8469 25.7605 44.8694C25.7684 44.8831 25.7684 44.8987 25.7767 44.9124C25.949 45.1873 30.1136 51.6384 40.8323 51.6384C51.6497 51.6384 55.7259 45.1785 55.8938 44.9036C55.9007 44.8923 55.9002 44.8796 55.9065 44.8684C55.9187 44.8464 55.93 44.8259 55.9402 44.803C55.9632 44.7546 55.972 44.7009 55.9871 44.6487C56.0008 44.5984 56.0223 44.5515 56.0281 44.5007C56.0311 44.4753 56.0311 44.4509 56.032 44.4255C56.0325 44.4099 56.0408 44.3972 56.0408 44.3816C56.0408 44.3416 56.0228 44.3074 56.0179 44.2683ZM46.4935 39.9592C48.5633 39.9592 51.0252 41.8069 52.7 43.3816H41.9852C42.3064 42.0676 43.3152 39.9592 46.4935 39.9592ZM35.1717 39.9592C38.3597 39.9592 39.3675 42.0535 39.6863 43.3816H28.9627C30.6375 41.8074 33.1023 39.9592 35.1717 39.9592ZM28.8045 45.3816H40.8108H40.8313H40.8328H52.8821C51.0999 47.0969 47.3621 49.6384 40.8323 49.6384C34.3665 49.6384 30.6097 47.0994 28.8045 45.3816Z" fill="black"/>
<path d="M57.5217 5.44609C56.0906 1.90849 52.2058 -0.405964 48.4798 0.0593684C43.822 0.643353 41.0027 5.83622 40.885 6.05693C40.6253 6.54423 40.8093 7.15019 41.2966 7.40995C41.783 7.66972 42.3899 7.48515 42.6497 6.99833C42.6736 6.95341 45.0877 2.50029 48.7288 2.04374C51.532 1.68779 54.5828 3.51542 55.6673 6.19609C56.7932 8.9788 55.3753 12.2688 54.2361 14.9129C53.534 16.5433 53.5134 18.3001 53.4934 19.9988C53.4656 22.3709 53.4417 24.4192 51.6267 25.74C50.2503 26.7415 48.637 27.1419 47.3128 26.8162C46.3025 26.5657 45.531 25.9119 45.0203 24.8719C44.7761 24.3758 44.179 24.1702 43.6819 24.4153C43.1863 24.6585 42.9817 25.2576 43.2254 25.7537C43.9973 27.3255 45.2444 28.3641 46.8323 28.7576C47.2879 28.8704 47.7634 28.9256 48.2488 28.9256C49.7766 28.9256 51.4007 28.3777 52.8035 27.3572C55.43 25.4461 55.4636 22.5647 55.4934 20.0223C55.5115 18.451 55.5291 16.9671 56.073 15.7039C57.3596 12.7185 58.9607 9.00273 57.5217 5.44609Z" fill="black"/>
<path d="M50.1799 14.3558C50.7366 13.8832 51.3679 13.3475 51.8005 12.5619C52.3943 11.4837 52.4793 10.1561 52.0271 9.01109C51.5974 7.92271 50.76 7.12681 49.6687 6.77085C46.4851 5.73326 44.759 8.92613 43.7297 10.8363L43.4763 11.3026C43.2087 11.786 43.384 12.3944 43.8674 12.6615C44.3513 12.9295 44.9597 12.7538 45.2263 12.2704L45.49 11.785C46.6008 9.72496 47.5701 8.19224 49.0481 8.67222C49.5627 8.84019 49.9602 9.22105 50.1668 9.74497C50.4026 10.3426 50.3586 11.0345 50.0486 11.597C49.7932 12.0604 49.3523 12.4349 48.8855 12.8309C48.3308 13.3016 47.7024 13.8353 47.2776 14.6146C46.4343 16.1629 47.2996 17.3353 47.8718 18.1112C48.0501 18.3529 48.2185 18.5809 48.3347 18.8002C48.5974 19.2943 48.448 20.1224 48.0437 20.412C47.7092 20.6532 46.717 20.2586 46.1248 20.0223C45.9094 19.9364 45.7053 19.8553 45.5193 19.7904C44.9978 19.6092 44.428 19.8841 44.2459 20.4056C44.0642 20.9271 44.3396 21.4974 44.8611 21.6791C45.0217 21.7352 45.198 21.8055 45.384 21.8797C46.0349 22.1395 46.8958 22.4828 47.7498 22.4828C48.2532 22.4828 48.7546 22.3636 49.2092 22.0375C50.4304 21.1625 50.8386 19.2503 50.1008 17.8612C49.9148 17.5121 49.6843 17.1996 49.4812 16.9237C48.8958 16.1302 48.8328 15.9403 49.0339 15.5711C49.2805 15.119 49.697 14.7655 50.1799 14.3558Z" fill="black"/>
<path d="M9.46667 23.2493C4.58044 23.2493 0.605347 27.2249 0.605347 32.1111V46.9563C0.605347 47.5085 1.0531 47.9563 1.60535 47.9563C2.15759 47.9563 2.60535 47.5085 2.60535 46.9563V32.1111C2.60535 28.3274 5.68347 25.2493 9.46667 25.2493C13.2504 25.2493 16.3285 28.3274 16.3285 32.1111V46.9563C16.3285 47.5085 16.7762 47.9563 17.3285 47.9563C17.8807 47.9563 18.3285 47.5085 18.3285 46.9563V32.1111C18.3285 27.2249 14.3529 23.2493 9.46667 23.2493Z" fill="black"/>
<path d="M13.5839 35.2732C14.1361 35.2732 14.5839 34.8254 14.5839 34.2732C14.5839 30.9026 12.2885 28.1604 9.46667 28.1604C6.64539 28.1604 4.34998 30.9026 4.34998 34.2732C4.34998 35.8699 4.85828 37.3792 5.78162 38.5222C6.75232 39.7244 8.06091 40.3865 9.46667 40.3865C10.0189 40.3865 10.4667 39.9387 10.4667 39.3865C10.4667 38.8342 10.0189 38.3865 9.46667 38.3865C8.67712 38.3865 7.92126 37.9885 7.33777 37.2659C6.70105 36.4768 6.34998 35.4143 6.34998 34.2732C6.34998 32.0056 7.74792 30.1604 9.46667 30.1604C11.1854 30.1604 12.5839 32.0056 12.5839 34.2732C12.5839 34.8254 13.0316 35.2732 13.5839 35.2732Z" fill="black"/>
<path d="M9.34851 37.1184C9.5072 37.2107 9.68054 37.2546 9.85144 37.2546C10.1957 37.2546 10.5306 37.0769 10.7162 36.7585C11.8837 34.7566 10.9208 32.9568 10.2484 32.2844C9.85779 31.8938 9.22498 31.8938 8.83435 32.2844C8.44373 32.675 8.44373 33.3079 8.83435 33.6985C8.86902 33.7336 9.67957 34.5657 8.98865 35.7507C8.71033 36.2278 8.87146 36.8401 9.34851 37.1184Z" fill="black"/>
<path d="M13.8763 38.0741C13.3299 38.0145 12.8328 38.4081 12.7723 38.9574C12.6209 40.3163 11.5208 41.4994 9.96905 41.9706C8.83086 42.3168 7.26446 42.2718 6.28252 41.1063C5.92657 40.6844 5.29619 40.6297 4.87334 40.9872C4.45147 41.3431 4.39776 41.974 4.7542 42.3963C5.72539 43.5472 7.15215 44.1649 8.70879 44.1649C9.30938 44.1649 9.92949 44.0731 10.5501 43.8841C12.868 43.18 14.5203 41.3329 14.7596 39.1781C14.8206 38.6293 14.4256 38.1351 13.8763 38.0741Z" fill="black"/>
<path d="M40.1331 32.5368C41.2762 31.1052 40.8211 28.9157 40.7445 28.593L33.0784 4.16572C32.9124 3.63789 32.3485 3.3459 31.825 3.51094C31.2982 3.67646 31.0047 4.2375 31.1702 4.76436L38.8153 29.114C38.8851 29.4211 39.0482 30.6906 38.5701 31.2893C38.4974 31.3801 38.2767 31.6569 37.5657 31.6569H35.3319V29.6281C35.3319 29.0759 34.8841 28.6281 34.3319 28.6281C33.7796 28.6281 33.3319 29.0759 33.3319 29.6281V31.6569H29.7645V29.6281C29.7645 29.0759 29.3167 28.6281 28.7645 28.6281C28.2122 28.6281 27.7645 29.0759 27.7645 29.6281V31.6569H25.5862C24.8773 31.6569 24.6566 31.382 24.5838 31.2917C24.1185 30.7131 24.2537 29.4924 24.3118 29.2038L27.9056 18.2512C28.0779 17.7268 27.7918 17.1618 27.2669 16.9895C26.7415 16.8166 26.1776 17.1037 26.0052 17.6276L22.3865 28.6706C22.3309 28.9157 21.8758 31.1052 23.0189 32.5368C23.4266 33.048 24.2029 33.6569 25.5862 33.6569H37.5657C38.949 33.6569 39.7254 33.048 40.1331 32.5368Z" fill="black"/>
</svg>
